<?xml version="1.0" encoding="iso-8859-1"?>
<!-- Generator: Adobe Illustrator 19.0.0, SVG Export Plug-In . SVG Version: 6.00 Build 0)  -->
<svg version="1.1" id="Capa_1" xmlns="http://www.w3.org/2000/svg" xmlns:xlink="http://www.w3.org/1999/xlink" x="0px" y="0px"
	 viewBox="0 0 512 512" style="enable-background:new 0 0 512 512;" xml:space="preserve">
<polygon style="fill:#F5B955;" points="392.081,282.789 371.734,365.051 436.522,475.001 502,475.001 "/>
<polygon style="fill:#FF9155;" points="371.734,365.051 392.081,282.789 351.388,330.521 "/>
<polygon style="fill:#F5B955;" points="84.823,475.001 131.995,296.874 256,475.001 "/>
<g>
	<polygon style="fill:#FF9155;" points="84.823,475.001 131.995,296.874 10,451.145 	"/>
	<polygon style="fill:#FF9155;" points="266.466,186.402 214.983,416.081 256,475.001 436.522,475.001 	"/>
	<polygon style="fill:#FF9155;" points="266.466,186.402 214.983,416.081 256,475.001 436.522,475.001 	"/>
	<polygon style="fill:#FF9155;" points="266.466,186.402 162.853,341.2 214.983,416.081 	"/>
</g>
<polygon style="fill:#F5C86E;" points="266.466,186.402 214.983,416.081 256,475.001 436.522,475.001 "/>
<circle style="fill:#F5B955;" cx="412.37" cy="126.631" r="35.85"/>
<path d="M61.56,395.941c2.64,0,5.21-1.069,7.08-2.93c1.86-1.86,2.93-4.44,2.93-7.07s-1.07-5.21-2.93-7.08
	c-1.87-1.859-4.44-2.92-7.08-2.92c-2.63,0-5.21,1.061-7.07,2.92c-1.86,1.87-2.93,4.45-2.93,7.08s1.07,5.21,2.93,7.07
	C56.35,394.871,58.93,395.941,61.56,395.941z"/>
<path d="M400.762,277.824c-1.616-2.827-4.508-4.689-7.75-4.993c-3.244-0.291-6.429,0.991-8.541,3.47l-31.591,37.055l-77.799-132.031
	c-2.083-3.536-6.112-5.435-10.169-4.803c-2.414,0.38-4.529,1.628-6.047,3.41c-0.092,0.032-0.31,0.309-0.709,0.906l-95.465,142.625
	l-22.489-32.304c-1.808-2.597-4.739-4.185-7.902-4.281c-3.168-0.085-6.186,1.31-8.148,3.792l-47.811,60.459
	c-3.426,4.332-2.691,10.621,1.641,14.047c4.331,3.426,10.62,2.691,14.046-1.641l17.995-22.755l-32.176,121.5l-51.036-16.272
	l15.419-19.499c3.426-4.332,2.691-10.621-1.641-14.047c-4.332-3.427-10.621-2.691-14.046,1.641L2.156,444.941
	c-2.036,2.575-2.679,5.985-1.72,9.125s3.398,5.608,6.526,6.605l74.823,23.856c0.982,0.313,2.007,0.473,3.038,0.473H502
	c3.565,0,6.861-1.898,8.65-4.982s1.801-6.887,0.031-9.981L400.762,277.824z M372.199,321.523l-4.289,17.34l-4.289-7.278
	L372.199,321.523z M244.999,236.451l-34.801,155.255l-35.238-50.617L244.999,236.451z M174.851,375.938h-24.518
	c-5.523,0-10,4.478-10,10s4.477,10,10,10h38.441l48.08,69.063H97.816l5.032-19h33.486c5.523,0,10-4.478,10-10s-4.477-10-10-10
	h-28.189l27.987-105.682L174.851,375.938z M261.223,465.001l-35.521-51.024l6.869-30.643h37.302c5.523,0,10-4.478,10-10
	s-4.477-10-10-10h-32.819l12.715-56.726c0.727,0.168,1.481,0.266,2.259,0.266H285c5.523,0,10-4.478,10-10s-4.477-10-10-10h-30.807
	l16.499-73.604l61.319,104.063h-36.344c-5.523,0-10,4.478-10,10s4.477,10,10,10h48.129l30.641,52h-26.102c-5.523,0-10,4.478-10,10
	s4.477,10,10,10h37.887l32.8,55.668H261.223z M442.237,465.001L382.422,363.49l13.373-54.065l88.967,155.576H442.237z"/>
<path d="M310.33,409.331c2.64,0,5.21-1.061,7.07-2.931c1.87-1.859,2.93-4.439,2.93-7.069s-1.06-5.21-2.93-7.07
	c-1.86-1.86-4.43-2.93-7.07-2.93c-2.63,0-5.2,1.069-7.07,2.93c-1.86,1.86-2.93,4.44-2.93,7.07s1.07,5.21,2.93,7.069
	C305.12,408.271,307.7,409.331,310.33,409.331z"/>
<path d="M317,426.001h-28.874c-5.523,0-10,4.478-10,10s4.477,10,10,10H317c5.523,0,10-4.478,10-10S322.523,426.001,317,426.001z"/>
<path d="M177.29,457.001h14.437c5.523,0,10-4.478,10-10s-4.477-10-10-10H177.29c-5.523,0-10,4.478-10,10
	S171.767,457.001,177.29,457.001z"/>
<path d="M412.374,172.478c25.282,0,45.851-20.568,45.851-45.851s-20.568-45.851-45.851-45.851s-45.851,20.568-45.851,45.851
	S387.092,172.478,412.374,172.478z M412.374,100.776c14.254,0,25.851,11.597,25.851,25.851s-11.597,25.851-25.851,25.851
	s-25.851-11.597-25.851-25.851S398.12,100.776,412.374,100.776z"/>
<path d="M475.81,126.627c0,5.522,4.477,10,10,10H502c5.523,0,10-4.478,10-10s-4.477-10-10-10h-16.19
	C480.287,116.627,475.81,121.105,475.81,126.627z"/>
<path d="M322.748,136.627h16.19c5.523,0,10-4.478,10-10s-4.477-10-10-10h-16.19c-5.523,0-10,4.478-10,10
	C312.748,132.149,317.225,136.627,322.748,136.627z"/>
<path d="M402.374,200.063v16.19c0,5.522,4.477,10,10,10s10-4.478,10-10v-16.19c0-5.522-4.477-10-10-10
	S402.374,194.54,402.374,200.063z"/>
<path d="M412.374,63.191c5.523,0,10-4.478,10-10v-16.19c0-5.522-4.477-10-10-10s-10,4.478-10,10v16.19
	C402.374,58.714,406.851,63.191,412.374,63.191z"/>
<path d="M457.23,171.483c-3.905,3.905-3.905,10.237,0,14.143l11.448,11.448c1.953,1.952,4.512,2.929,7.071,2.929
	s5.119-0.977,7.071-2.929c3.905-3.905,3.905-10.237,0-14.143l-11.448-11.448C467.467,167.578,461.135,167.578,457.23,171.483z"/>
<path d="M353.376,81.772c1.953,1.952,4.512,2.929,7.071,2.929s5.119-0.977,7.071-2.929c3.905-3.905,3.905-10.237,0-14.143
	L356.07,56.181c-3.905-3.904-10.237-3.904-14.143,0c-3.905,3.905-3.905,10.237,0,14.143L353.376,81.772z"/>
<path d="M353.376,171.483l-11.448,11.448c-3.905,3.905-3.905,10.237,0,14.143c1.953,1.952,4.512,2.929,7.071,2.929
	s5.119-0.977,7.071-2.929l11.448-11.448c3.905-3.905,3.905-10.237,0-14.143C363.613,167.578,357.281,167.578,353.376,171.483z"/>
<path d="M464.301,84.7c2.559,0,5.119-0.977,7.071-2.929l11.448-11.448c3.905-3.905,3.905-10.237,0-14.143
	c-3.905-3.904-10.237-3.904-14.143,0L457.23,67.629c-3.905,3.905-3.905,10.237,0,14.143C459.182,83.724,461.742,84.7,464.301,84.7z"
	/>
<g>
</g>
<g>
</g>
<g>
</g>
<g>
</g>
<g>
</g>
<g>
</g>
<g>
</g>
<g>
</g>
<g>
</g>
<g>
</g>
<g>
</g>
<g>
</g>
<g>
</g>
<g>
</g>
<g>
</g>
</svg>
