<?xml version="1.0" encoding="iso-8859-1"?>
<!-- Generator: Adobe Illustrator 19.0.0, SVG Export Plug-In . SVG Version: 6.00 Build 0)  -->
<svg version="1.1" id="Capa_1" xmlns="http://www.w3.org/2000/svg" xmlns:xlink="http://www.w3.org/1999/xlink" x="0px" y="0px"
	 viewBox="0 0 512 512" style="enable-background:new 0 0 512 512;" xml:space="preserve">
<g>
	<g>
		<path d="M68.64,378.861c-1.87-1.859-4.44-2.92-7.08-2.92c-2.63,0-5.21,1.061-7.07,2.92c-1.86,1.87-2.93,4.45-2.93,7.08
			c0,2.63,1.07,5.21,2.93,7.07c1.86,1.86,4.44,2.93,7.07,2.93c2.64,0,5.21-1.069,7.08-2.93c1.86-1.86,2.93-4.44,2.93-7.07
			S70.5,380.731,68.64,378.861z"/>
	</g>
</g>
<g>
	<g>
		<path d="M510.681,470.037L400.762,277.824c-1.616-2.827-4.508-4.689-7.75-4.993c-3.244-0.291-6.429,0.991-8.541,3.47
			l-31.591,37.055l-77.799-132.031c-2.083-3.536-6.112-5.435-10.169-4.803c-2.414,0.38-4.529,1.628-6.047,3.41
			c-0.092,0.032-0.31,0.309-0.709,0.906l-95.465,142.625l-22.489-32.304c-1.808-2.597-4.739-4.185-7.902-4.281
			c-3.168-0.085-6.186,1.31-8.148,3.792l-47.811,60.459c-3.426,4.332-2.691,10.621,1.641,14.047
			c4.331,3.426,10.62,2.691,14.046-1.641l17.995-22.755l-32.176,121.5l-51.036-16.272l15.419-19.499
			c3.426-4.332,2.691-10.621-1.641-14.047c-4.332-3.427-10.621-2.691-14.046,1.641L2.156,444.941
			c-2.036,2.575-2.679,5.985-1.72,9.125c0.959,3.14,3.398,5.608,6.526,6.605l74.823,23.856c0.982,0.313,2.007,0.473,3.038,0.473H502
			c3.565,0,6.861-1.898,8.65-4.982C512.439,476.934,512.451,473.131,510.681,470.037z M372.199,321.523l-4.289,17.34l-4.289-7.278
			L372.199,321.523z M244.999,236.451l-34.801,155.255l-35.238-50.617L244.999,236.451z M97.816,465.001l5.032-19h33.486
			c5.523,0,10-4.478,10-10c0-5.522-4.477-10-10-10h-28.189l27.987-105.682l38.719,55.619h-24.518c-5.523,0-10,4.478-10,10
			c0,5.522,4.477,10,10,10h38.441l48.08,69.063H97.816z M261.223,465.001l-35.521-51.024l6.869-30.643h37.302
			c5.523,0,10-4.478,10-10c0-5.522-4.477-10-10-10h-32.819l12.715-56.726c0.727,0.168,1.481,0.266,2.259,0.266H285
			c5.523,0,10-4.478,10-10c0-5.522-4.477-10-10-10h-30.807l16.499-73.604l61.319,104.063h-36.344c-5.523,0-10,4.478-10,10
			c0,5.522,4.477,10,10,10h48.129l30.641,52h-26.102c-5.523,0-10,4.478-10,10c0,5.522,4.477,10,10,10h37.887l32.8,55.668H261.223z
			 M442.237,465.001L382.422,363.49l13.373-54.065l88.967,155.576H442.237z"/>
	</g>
</g>
<g>
	<g>
		<path d="M317.4,392.261c-1.86-1.86-4.43-2.93-7.07-2.93c-2.63,0-5.2,1.069-7.07,2.93c-1.86,1.86-2.93,4.44-2.93,7.07
			s1.07,5.21,2.93,7.069c1.86,1.871,4.44,2.931,7.07,2.931c2.64,0,5.21-1.061,7.07-2.931c1.87-1.859,2.93-4.439,2.93-7.069
			S319.27,394.121,317.4,392.261z"/>
	</g>
</g>
<g>
	<g>
		<path d="M317,426.001h-28.874c-5.523,0-10,4.478-10,10c0,5.522,4.477,10,10,10H317c5.523,0,10-4.478,10-10
			C327,430.479,322.523,426.001,317,426.001z"/>
	</g>
</g>
<g>
	<g>
		<path d="M191.727,437.001H177.29c-5.523,0-10,4.478-10,10c0,5.522,4.477,10,10,10h14.437c5.523,0,10-4.478,10-10
			C201.727,441.479,197.25,437.001,191.727,437.001z"/>
	</g>
</g>
<g>
	<g>
		<path d="M412.374,80.776c-25.283,0-45.851,20.568-45.851,45.851c0,25.283,20.569,45.851,45.851,45.851
			s45.851-20.568,45.851-45.851C458.225,101.344,437.657,80.776,412.374,80.776z M412.374,152.478
			c-14.254,0-25.851-11.597-25.851-25.851c0-14.254,11.597-25.851,25.851-25.851c14.254,0,25.851,11.597,25.851,25.851
			C438.225,140.881,426.628,152.478,412.374,152.478z"/>
	</g>
</g>
<g>
	<g>
		<path d="M502,116.627h-16.19c-5.523,0-10,4.478-10,10c0,5.522,4.477,10,10,10H502c5.523,0,10-4.478,10-10
			C512,121.105,507.523,116.627,502,116.627z"/>
	</g>
</g>
<g>
	<g>
		<path d="M338.938,116.627h-16.19c-5.523,0-10,4.478-10,10c0,5.522,4.477,10,10,10h16.19c5.523,0,10-4.478,10-10
			C348.938,121.105,344.461,116.627,338.938,116.627z"/>
	</g>
</g>
<g>
	<g>
		<path d="M412.374,190.063c-5.523,0-10,4.477-10,10v16.19c0,5.522,4.477,10,10,10s10-4.478,10-10v-16.19
			C422.374,194.541,417.897,190.063,412.374,190.063z"/>
	</g>
</g>
<g>
	<g>
		<path d="M412.374,27.001c-5.523,0-10,4.478-10,10v16.19c0,5.523,4.477,10,10,10s10-4.478,10-10v-16.19
			C422.374,31.479,417.897,27.001,412.374,27.001z"/>
	</g>
</g>
<g>
	<g>
		<path d="M482.82,182.931l-11.448-11.448c-3.905-3.905-10.237-3.905-14.142,0c-3.905,3.905-3.905,10.237,0,14.143l11.448,11.448
			c1.953,1.952,4.512,2.929,7.071,2.929s5.119-0.977,7.071-2.929C486.725,193.169,486.725,186.837,482.82,182.931z"/>
	</g>
</g>
<g>
	<g>
		<path d="M367.518,67.629L356.07,56.181c-3.905-3.904-10.237-3.904-14.143,0c-3.905,3.905-3.905,10.237,0,14.143l11.449,11.448
			c1.953,1.952,4.512,2.929,7.071,2.929s5.119-0.977,7.071-2.929C371.423,77.867,371.423,71.535,367.518,67.629z"/>
	</g>
</g>
<g>
	<g>
		<path d="M367.518,171.483c-3.905-3.905-10.237-3.905-14.142,0l-11.448,11.448c-3.905,3.905-3.905,10.237,0,14.143
			c1.953,1.952,4.512,2.929,7.071,2.929s5.119-0.977,7.071-2.929l11.448-11.448C371.423,181.721,371.423,175.389,367.518,171.483z"
			/>
	</g>
</g>
<g>
	<g>
		<path d="M482.82,56.18c-3.905-3.904-10.237-3.904-14.143,0L457.23,67.629c-3.905,3.905-3.905,10.237,0,14.143
			c1.952,1.952,4.512,2.928,7.071,2.928c2.559,0,5.119-0.977,7.071-2.929l11.448-11.448C486.725,66.418,486.725,60.086,482.82,56.18
			z"/>
	</g>
</g>
<g>
</g>
<g>
</g>
<g>
</g>
<g>
</g>
<g>
</g>
<g>
</g>
<g>
</g>
<g>
</g>
<g>
</g>
<g>
</g>
<g>
</g>
<g>
</g>
<g>
</g>
<g>
</g>
<g>
</g>
</svg>
